solid 
   facet normal -0.000000e+000 0.000000e+000 -1.000000e+000
      outer loop
         vertex 3.110000e+001 -1.460000e+001 9.000000e+000
         vertex 2.985000e+001 -1.676506e+001 9.000000e+000
         vertex 2.860000e+001 -1.710000e+001 9.000000e+000
      endloop
   endfacet
   facet normal 0.000000e+000 0.000000e+000 -1.000000e+000
      outer loop
         vertex 2.985000e+001 -1.676506e+001 9.000000e+000
         vertex 3.110000e+001 -1.460000e+001 9.000000e+000
         vertex 3.076506e+001 -1.585000e+001 9.000000e+000
      endloop
   endfacet
   facet normal 0.000000e+000 -0.000000e+000 -1.000000e+000
      outer loop
         vertex 3.110000e+001 -7.000000e+000 9.000000e+000
         vertex 3.250000e+001 7.000000e+000 9.000000e+000
         vertex 3.250000e+001 -7.000000e+000 9.000000e+000
      endloop
   endfacet
   facet normal -0.000000e+000 -0.000000e+000 -1.000000e+000
      outer loop
         vertex 2.985000e+001 1.676506e+001 9.000000e+000
         vertex 3.076506e+001 1.585000e+001 9.000000e+000
         vertex 3.110000e+001 1.460000e+001 9.000000e+000
      endloop
   endfacet
   facet normal 0.000000e+000 0.000000e+000 -1.000000e+000
      outer loop
         vertex -2.000000e+000 1.300000e+001 9.000000e+000
         vertex -2.860000e+001 1.710000e+001 9.000000e+000
         vertex 2.860000e+001 1.710000e+001 9.000000e+000
      endloop
   endfacet
   facet normal 0.000000e+000 -0.000000e+000 -1.000000e+000
      outer loop
         vertex -3.110000e+001 1.460000e+001 9.000000e+000
         vertex -3.076506e+001 1.585000e+001 9.000000e+000
         vertex -2.985000e+001 1.676506e+001 9.000000e+000
      endloop
   endfacet
   facet normal 0.000000e+000 0.000000e+000 -1.000000e+000
      outer loop
         vertex -2.985000e+001 -1.676506e+001 9.000000e+000
         vertex -3.076506e+001 -1.585000e+001 9.000000e+000
         vertex -3.110000e+001 -1.460000e+001 9.000000e+000
      endloop
   endfacet
   facet normal 0.000000e+000 0.000000e+000 -1.000000e+000
      outer loop
         vertex -2.000000e+000 -1.300000e+001 9.000000e+000
         vertex 2.860000e+001 -1.710000e+001 9.000000e+000
         vertex -2.860000e+001 -1.710000e+001 9.000000e+000
      endloop
   endfacet
   facet normal 0.000000e+000 0.000000e+000 -1.000000e+000
      outer loop
         vertex -1.350000e+001 1.300000e+001 9.000000e+000
         vertex -1.700000e+001 -1.300000e+001 9.000000e+000
         vertex -1.700000e+001 1.300000e+001 9.000000e+000
      endloop
   endfacet
   facet normal -0.000000e+000 -0.000000e+000 -1.000000e+000
      outer loop
         vertex -2.200000e+001 1.300000e+001 9.000000e+000
         vertex -1.850000e+001 1.300000e+001 9.000000e+000
         vertex -1.850000e+001 -1.300000e+001 9.000000e+000
      endloop
   endfacet
   facet normal 0.000000e+000 0.000000e+000 -1.000000e+000
      outer loop
         vertex -8.500000e+000 1.300000e+001 9.000000e+000
         vertex -1.200000e+001 -1.300000e+001 9.000000e+000
         vertex -1.200000e+001 1.300000e+001 9.000000e+000
      endloop
   endfacet
   facet normal 0.000000e+000 -0.000000e+000 -1.000000e+000
      outer loop
         vertex -1.700000e+001 -1.300000e+001 9.000000e+000
         vertex -1.350000e+001 1.300000e+001 9.000000e+000
         vertex -1.350000e+001 -1.300000e+001 9.000000e+000
      endloop
   endfacet
   facet normal 0.000000e+000 0.000000e+000 -1.000000e+000
      outer loop
         vertex -3.500000e+000 1.300000e+001 9.000000e+000
         vertex -7.000000e+000 -1.300000e+001 9.000000e+000
         vertex -7.000000e+000 1.300000e+001 9.000000e+000
      endloop
   endfacet
   facet normal 0.000000e+000 -0.000000e+000 -1.000000e+000
      outer loop
         vertex -1.200000e+001 -1.300000e+001 9.000000e+000
         vertex -8.500000e+000 1.300000e+001 9.000000e+000
         vertex -8.500000e+000 -1.300000e+001 9.000000e+000
      endloop
   endfacet
   facet normal 0.000000e+000 0.000000e+000 -1.000000e+000
      outer loop
         vertex 2.860000e+001 -1.710000e+001 9.000000e+000
         vertex -2.000000e+000 -1.300000e+001 9.000000e+000
         vertex -2.000000e+000 1.300000e+001 9.000000e+000
      endloop
   endfacet
   facet normal 0.000000e+000 -0.000000e+000 -1.000000e+000
      outer loop
         vertex -7.000000e+000 -1.300000e+001 9.000000e+000
         vertex -3.500000e+000 1.300000e+001 9.000000e+000
         vertex -3.500000e+000 -1.300000e+001 9.000000e+000
      endloop
   endfacet
   facet normal 0.000000e+000 0.000000e+000 -1.000000e+000
      outer loop
         vertex -1.850000e+001 -1.300000e+001 9.000000e+000
         vertex -2.200000e+001 -1.300000e+001 9.000000e+000
         vertex -2.200000e+001 1.300000e+001 9.000000e+000
      endloop
   endfacet
   facet normal -0.000000e+000 -0.000000e+000 -1.000000e+000
      outer loop
         vertex -3.110000e+001 1.460000e+001 9.000000e+000
         vertex -2.350000e+001 1.300000e+001 9.000000e+000
         vertex -2.350000e+001 -1.300000e+001 9.000000e+000
      endloop
   endfacet
   facet normal -0.000000e+000 0.000000e+000 -1.000000e+000
      outer loop
         vertex 3.110000e+001 7.000000e+000 9.000000e+000
         vertex 3.250000e+001 7.000000e+000 9.000000e+000
         vertex 3.110000e+001 -7.000000e+000 9.000000e+000
      endloop
   endfacet
   facet normal 0.000000e+000 0.000000e+000 -1.000000e+000
      outer loop
         vertex -3.500000e+000 1.300000e+001 9.000000e+000
         vertex -2.860000e+001 1.710000e+001 9.000000e+000
         vertex -2.000000e+000 1.300000e+001 9.000000e+000
      endloop
   endfacet
   facet normal -0.000000e+000 0.000000e+000 -1.000000e+000
      outer loop
         vertex -3.500000e+000 -1.300000e+001 9.000000e+000
         vertex -2.000000e+000 -1.300000e+001 9.000000e+000
         vertex -2.860000e+001 -1.710000e+001 9.000000e+000
      endloop
   endfacet
   facet normal 0.000000e+000 0.000000e+000 -1.000000e+000
      outer loop
         vertex 2.860000e+001 1.710000e+001 9.000000e+000
         vertex 2.860000e+001 -1.710000e+001 9.000000e+000
         vertex -2.000000e+000 1.300000e+001 9.000000e+000
      endloop
   endfacet
   facet normal 0.000000e+000 0.000000e+000 -1.000000e+000
      outer loop
         vertex -3.110000e+001 -1.460000e+001 9.000000e+000
         vertex -3.110000e+001 1.460000e+001 9.000000e+000
         vertex -2.350000e+001 -1.300000e+001 9.000000e+000
      endloop
   endfacet
   facet normal 0.000000e+000 0.000000e+000 -1.000000e+000
      outer loop
         vertex -7.000000e+000 1.300000e+001 9.000000e+000
         vertex -2.860000e+001 1.710000e+001 9.000000e+000
         vertex -3.500000e+000 1.300000e+001 9.000000e+000
      endloop
   endfacet
   facet normal 0.000000e+000 0.000000e+000 -1.000000e+000
      outer loop
         vertex -2.860000e+001 -1.710000e+001 9.000000e+000
         vertex -3.110000e+001 -1.460000e+001 9.000000e+000
         vertex -2.350000e+001 -1.300000e+001 9.000000e+000
      endloop
   endfacet
   facet normal 0.000000e+000 0.000000e+000 -1.000000e+000
      outer loop
         vertex -2.200000e+001 -1.300000e+001 9.000000e+000
         vertex -2.860000e+001 -1.710000e+001 9.000000e+000
         vertex -2.350000e+001 -1.300000e+001 9.000000e+000
      endloop
   endfacet
   facet normal 0.000000e+000 -0.000000e+000 -1.000000e+000
      outer loop
         vertex 2.860000e+001 -1.710000e+001 9.000000e+000
         vertex 3.110000e+001 -7.000000e+000 9.000000e+000
         vertex 3.110000e+001 -1.460000e+001 9.000000e+000
      endloop
   endfacet
   facet normal 0.000000e+000 0.000000e+000 -1.000000e+000
      outer loop
         vertex 3.110000e+001 1.460000e+001 9.000000e+000
         vertex 2.860000e+001 1.710000e+001 9.000000e+000
         vertex 2.985000e+001 1.676506e+001 9.000000e+000
      endloop
   endfacet
   facet normal 0.000000e+000 0.000000e+000 -1.000000e+000
      outer loop
         vertex -3.110000e+001 -1.460000e+001 9.000000e+000
         vertex -2.860000e+001 -1.710000e+001 9.000000e+000
         vertex -2.985000e+001 -1.676506e+001 9.000000e+000
      endloop
   endfacet
   facet normal 0.000000e+000 0.000000e+000 -1.000000e+000
      outer loop
         vertex -2.860000e+001 1.710000e+001 9.000000e+000
         vertex -2.200000e+001 1.300000e+001 9.000000e+000
         vertex -2.350000e+001 1.300000e+001 9.000000e+000
      endloop
   endfacet
   facet normal 0.000000e+000 0.000000e+000 -1.000000e+000
      outer loop
         vertex -2.860000e+001 1.710000e+001 9.000000e+000
         vertex -2.350000e+001 1.300000e+001 9.000000e+000
         vertex -3.110000e+001 1.460000e+001 9.000000e+000
      endloop
   endfacet
   facet normal -0.000000e+000 0.000000e+000 -1.000000e+000
      outer loop
         vertex -7.000000e+000 -1.300000e+001 9.000000e+000
         vertex -3.500000e+000 -1.300000e+001 9.000000e+000
         vertex -2.860000e+001 -1.710000e+001 9.000000e+000
      endloop
   endfacet
   facet normal 0.000000e+000 0.000000e+000 -1.000000e+000
      outer loop
         vertex -1.850000e+001 -1.300000e+001 9.000000e+000
         vertex -2.860000e+001 -1.710000e+001 9.000000e+000
         vertex -2.200000e+001 -1.300000e+001 9.000000e+000
      endloop
   endfacet
   facet normal 0.000000e+000 0.000000e+000 -1.000000e+000
      outer loop
         vertex -1.850000e+001 1.300000e+001 9.000000e+000
         vertex -2.200000e+001 1.300000e+001 9.000000e+000
         vertex -2.860000e+001 1.710000e+001 9.000000e+000
      endloop
   endfacet
   facet normal 0.000000e+000 0.000000e+000 -1.000000e+000
      outer loop
         vertex -1.700000e+001 -1.300000e+001 9.000000e+000
         vertex -2.860000e+001 -1.710000e+001 9.000000e+000
         vertex -1.850000e+001 -1.300000e+001 9.000000e+000
      endloop
   endfacet
   facet normal -0.000000e+000 -0.000000e+000 -1.000000e+000
      outer loop
         vertex 2.860000e+001 1.710000e+001 9.000000e+000
         vertex 3.110000e+001 1.460000e+001 9.000000e+000
         vertex 3.110000e+001 7.000000e+000 9.000000e+000
      endloop
   endfacet
   facet normal 0.000000e+000 0.000000e+000 -1.000000e+000
      outer loop
         vertex -2.860000e+001 1.710000e+001 9.000000e+000
         vertex -3.110000e+001 1.460000e+001 9.000000e+000
         vertex -2.985000e+001 1.676506e+001 9.000000e+000
      endloop
   endfacet
   facet normal 0.000000e+000 -0.000000e+000 -1.000000e+000
      outer loop
         vertex 2.860000e+001 -1.710000e+001 9.000000e+000
         vertex 3.110000e+001 7.000000e+000 9.000000e+000
         vertex 3.110000e+001 -7.000000e+000 9.000000e+000
      endloop
   endfacet
   facet normal 0.000000e+000 0.000000e+000 -1.000000e+000
      outer loop
         vertex -8.500000e+000 1.300000e+001 9.000000e+000
         vertex -2.860000e+001 1.710000e+001 9.000000e+000
         vertex -7.000000e+000 1.300000e+001 9.000000e+000
      endloop
   endfacet
   facet normal 0.000000e+000 0.000000e+000 -1.000000e+000
      outer loop
         vertex -1.350000e+001 -1.300000e+001 9.000000e+000
         vertex -2.860000e+001 -1.710000e+001 9.000000e+000
         vertex -1.700000e+001 -1.300000e+001 9.000000e+000
      endloop
   endfacet
   facet normal 0.000000e+000 0.000000e+000 -1.000000e+000
      outer loop
         vertex -1.200000e+001 1.300000e+001 9.000000e+000
         vertex -2.860000e+001 1.710000e+001 9.000000e+000
         vertex -8.500000e+000 1.300000e+001 9.000000e+000
      endloop
   endfacet
   facet normal 0.000000e+000 0.000000e+000 -1.000000e+000
      outer loop
         vertex 3.110000e+001 7.000000e+000 9.000000e+000
         vertex 2.860000e+001 -1.710000e+001 9.000000e+000
         vertex 2.860000e+001 1.710000e+001 9.000000e+000
      endloop
   endfacet
   facet normal 0.000000e+000 0.000000e+000 -1.000000e+000
      outer loop
         vertex -1.700000e+001 1.300000e+001 9.000000e+000
         vertex -1.850000e+001 1.300000e+001 9.000000e+000
         vertex -2.860000e+001 1.710000e+001 9.000000e+000
      endloop
   endfacet
   facet normal 0.000000e+000 0.000000e+000 -1.000000e+000
      outer loop
         vertex -1.350000e+001 1.300000e+001 9.000000e+000
         vertex -1.700000e+001 1.300000e+001 9.000000e+000
         vertex -2.860000e+001 1.710000e+001 9.000000e+000
      endloop
   endfacet
   facet normal -0.000000e+000 0.000000e+000 -1.000000e+000
      outer loop
         vertex -8.500000e+000 -1.300000e+001 9.000000e+000
         vertex -7.000000e+000 -1.300000e+001 9.000000e+000
         vertex -2.860000e+001 -1.710000e+001 9.000000e+000
      endloop
   endfacet
   facet normal 0.000000e+000 0.000000e+000 -1.000000e+000
      outer loop
         vertex -1.200000e+001 1.300000e+001 9.000000e+000
         vertex -1.350000e+001 1.300000e+001 9.000000e+000
         vertex -2.860000e+001 1.710000e+001 9.000000e+000
      endloop
   endfacet
   facet normal 0.000000e+000 0.000000e+000 -1.000000e+000
      outer loop
         vertex -1.200000e+001 -1.300000e+001 9.000000e+000
         vertex -2.860000e+001 -1.710000e+001 9.000000e+000
         vertex -1.350000e+001 -1.300000e+001 9.000000e+000
      endloop
   endfacet
   facet normal -0.000000e+000 0.000000e+000 -1.000000e+000
      outer loop
         vertex -1.200000e+001 -1.300000e+001 9.000000e+000
         vertex -8.500000e+000 -1.300000e+001 9.000000e+000
         vertex -2.860000e+001 -1.710000e+001 9.000000e+000
      endloop
   endfacet
   facet normal 0.000000e+000 0.000000e+000 1.000000e+000
      outer loop
         vertex -2.850000e+001 -1.800000e+001 1.000000e+001
         vertex 2.850000e+001 -1.800000e+001 1.000000e+001
         vertex -2.000000e+000 -1.300000e+001 1.000000e+001
      endloop
   endfacet
   facet normal 0.000000e+000 -0.000000e+000 1.000000e+000
      outer loop
         vertex 3.003073e+001 -1.769552e+001 1.000000e+001
         vertex 3.132843e+001 -1.682843e+001 1.000000e+001
         vertex 3.250000e+001 -1.400000e+001 1.000000e+001
      endloop
   endfacet
   facet normal 0.000000e+000 0.000000e+000 1.000000e+000
      outer loop
         vertex 3.219552e+001 -1.553073e+001 1.000000e+001
         vertex 3.250000e+001 -1.400000e+001 1.000000e+001
         vertex 3.132843e+001 -1.682843e+001 1.000000e+001
      endloop
   endfacet
   facet normal 0.000000e+000 0.000000e+000 1.000000e+000
      outer loop
         vertex 3.219552e+001 1.553073e+001 1.000000e+001
         vertex 3.132843e+001 1.682843e+001 1.000000e+001
         vertex 3.250000e+001 1.400000e+001 1.000000e+001
      endloop
   endfacet
   facet normal -0.000000e+000 0.000000e+000 1.000000e+000
      outer loop
         vertex 2.850000e+001 1.800000e+001 1.000000e+001
         vertex -2.850000e+001 1.800000e+001 1.000000e+001
         vertex -2.000000e+000 1.300000e+001 1.000000e+001
      endloop
   endfacet
   facet normal -0.000000e+000 0.000000e+000 1.000000e+000
      outer loop
         vertex -3.003073e+001 1.769552e+001 1.000000e+001
         vertex -3.132843e+001 1.682843e+001 1.000000e+001
         vertex -3.250000e+001 1.400000e+001 1.000000e+001
      endloop
   endfacet
   facet normal 0.000000e+000 0.000000e+000 1.000000e+000
      outer loop
         vertex -3.219552e+001 1.553073e+001 1.000000e+001
         vertex -3.250000e+001 1.400000e+001 1.000000e+001
         vertex -3.132843e+001 1.682843e+001 1.000000e+001
      endloop
   endfacet
   facet normal 0.000000e+000 0.000000e+000 1.000000e+000
      outer loop
         vertex -3.219552e+001 -1.553073e+001 1.000000e+001
         vertex -3.132843e+001 -1.682843e+001 1.000000e+001
         vertex -3.250000e+001 -1.400000e+001 1.000000e+001
      endloop
   endfacet
   facet normal 0.000000e+000 0.000000e+000 1.000000e+000
      outer loop
         vertex -1.850000e+001 -1.300000e+001 1.000000e+001
         vertex -1.850000e+001 1.300000e+001 1.000000e+001
         vertex -2.200000e+001 -1.300000e+001 1.000000e+001
      endloop
   endfacet
   facet normal 0.000000e+000 0.000000e+000 1.000000e+000
      outer loop
         vertex -1.700000e+001 1.300000e+001 1.000000e+001
         vertex -1.700000e+001 -1.300000e+001 1.000000e+001
         vertex -1.350000e+001 -1.300000e+001 1.000000e+001
      endloop
   endfacet
   facet normal 0.000000e+000 0.000000e+000 1.000000e+000
      outer loop
         vertex -1.350000e+001 -1.300000e+001 1.000000e+001
         vertex -1.350000e+001 1.300000e+001 1.000000e+001
         vertex -1.700000e+001 1.300000e+001 1.000000e+001
      endloop
   endfacet
   facet normal 0.000000e+000 0.000000e+000 1.000000e+000
      outer loop
         vertex -1.200000e+001 1.300000e+001 1.000000e+001
         vertex -1.200000e+001 -1.300000e+001 1.000000e+001
         vertex -8.500000e+000 -1.300000e+001 1.000000e+001
      endloop
   endfacet
   facet normal 0.000000e+000 0.000000e+000 1.000000e+000
      outer loop
         vertex -8.500000e+000 -1.300000e+001 1.000000e+001
         vertex -8.500000e+000 1.300000e+001 1.000000e+001
         vertex -1.200000e+001 1.300000e+001 1.000000e+001
      endloop
   endfacet
   facet normal 0.000000e+000 0.000000e+000 1.000000e+000
      outer loop
         vertex -7.000000e+000 1.300000e+001 1.000000e+001
         vertex -7.000000e+000 -1.300000e+001 1.000000e+001
         vertex -3.500000e+000 -1.300000e+001 1.000000e+001
      endloop
   endfacet
   facet normal 0.000000e+000 0.000000e+000 1.000000e+000
      outer loop
         vertex -3.500000e+000 -1.300000e+001 1.000000e+001
         vertex -3.500000e+000 1.300000e+001 1.000000e+001
         vertex -7.000000e+000 1.300000e+001 1.000000e+001
      endloop
   endfacet
   facet normal -0.000000e+000 0.000000e+000 1.000000e+000
      outer loop
         vertex -2.000000e+000 1.300000e+001 1.000000e+001
         vertex -2.000000e+000 -1.300000e+001 1.000000e+001
         vertex 2.850000e+001 -1.800000e+001 1.000000e+001
      endloop
   endfacet
   facet normal 0.000000e+000 0.000000e+000 1.000000e+000
      outer loop
         vertex -2.350000e+001 -1.300000e+001 1.000000e+001
         vertex -2.350000e+001 1.300000e+001 1.000000e+001
         vertex -3.250000e+001 -1.400000e+001 1.000000e+001
      endloop
   endfacet
   facet normal 0.000000e+000 0.000000e+000 1.000000e+000
      outer loop
         vertex -2.200000e+001 1.300000e+001 1.000000e+001
         vertex -2.200000e+001 -1.300000e+001 1.000000e+001
         vertex -1.850000e+001 1.300000e+001 1.000000e+001
      endloop
   endfacet
   facet normal 0.000000e+000 0.000000e+000 1.000000e+000
      outer loop
         vertex 3.003073e+001 -1.769552e+001 1.000000e+001
         vertex 3.250000e+001 -1.400000e+001 1.000000e+001
         vertex 2.850000e+001 -1.800000e+001 1.000000e+001
      endloop
   endfacet
   facet normal 0.000000e+000 0.000000e+000 1.000000e+000
      outer loop
         vertex -2.000000e+000 1.300000e+001 1.000000e+001
         vertex -2.850000e+001 1.800000e+001 1.000000e+001
         vertex -3.500000e+000 1.300000e+001 1.000000e+001
      endloop
   endfacet
   facet normal 0.000000e+000 -0.000000e+000 1.000000e+000
      outer loop
         vertex -2.000000e+000 1.300000e+001 1.000000e+001
         vertex 2.850000e+001 -1.800000e+001 1.000000e+001
         vertex 2.850000e+001 1.800000e+001 1.000000e+001
      endloop
   endfacet
   facet normal 0.000000e+000 0.000000e+000 1.000000e+000
      outer loop
         vertex -3.500000e+000 1.300000e+001 1.000000e+001
         vertex -2.850000e+001 1.800000e+001 1.000000e+001
         vertex -7.000000e+000 1.300000e+001 1.000000e+001
      endloop
   endfacet
   facet normal 0.000000e+000 0.000000e+000 1.000000e+000
      outer loop
         vertex 3.250000e+001 -1.400000e+001 1.000000e+001
         vertex 3.250000e+001 1.400000e+001 1.000000e+001
         vertex 2.850000e+001 -1.800000e+001 1.000000e+001
      endloop
   endfacet
   facet normal 0.000000e+000 0.000000e+000 1.000000e+000
      outer loop
         vertex 3.003073e+001 1.769552e+001 1.000000e+001
         vertex 2.850000e+001 1.800000e+001 1.000000e+001
         vertex 3.250000e+001 1.400000e+001 1.000000e+001
      endloop
   endfacet
   facet normal 0.000000e+000 0.000000e+000 1.000000e+000
      outer loop
         vertex -3.250000e+001 1.400000e+001 1.000000e+001
         vertex -3.250000e+001 -1.400000e+001 1.000000e+001
         vertex -2.350000e+001 1.300000e+001 1.000000e+001
      endloop
   endfacet
   facet normal 0.000000e+000 0.000000e+000 1.000000e+000
      outer loop
         vertex -3.003073e+001 -1.769552e+001 1.000000e+001
         vertex -2.850000e+001 -1.800000e+001 1.000000e+001
         vertex -3.250000e+001 -1.400000e+001 1.000000e+001
      endloop
   endfacet
   facet normal -0.000000e+000 0.000000e+000 1.000000e+000
      outer loop
         vertex -2.200000e+001 -1.300000e+001 1.000000e+001
         vertex -2.350000e+001 -1.300000e+001 1.000000e+001
         vertex -2.850000e+001 -1.800000e+001 1.000000e+001
      endloop
   endfacet
   facet normal 0.000000e+000 0.000000e+000 1.000000e+000
      outer loop
         vertex -2.850000e+001 -1.800000e+001 1.000000e+001
         vertex -2.000000e+000 -1.300000e+001 1.000000e+001
         vertex -3.500000e+000 -1.300000e+001 1.000000e+001
      endloop
   endfacet
   facet normal -0.000000e+000 -0.000000e+000 1.000000e+000
      outer loop
         vertex -3.250000e+001 -1.400000e+001 1.000000e+001
         vertex -3.132843e+001 -1.682843e+001 1.000000e+001
         vertex -3.003073e+001 -1.769552e+001 1.000000e+001
      endloop
   endfacet
   facet normal -0.000000e+000 0.000000e+000 1.000000e+000
      outer loop
         vertex -2.350000e+001 -1.300000e+001 1.000000e+001
         vertex -3.250000e+001 -1.400000e+001 1.000000e+001
         vertex -2.850000e+001 -1.800000e+001 1.000000e+001
      endloop
   endfacet
   facet normal 0.000000e+000 0.000000e+000 1.000000e+000
      outer loop
         vertex 2.850000e+001 1.800000e+001 1.000000e+001
         vertex 2.850000e+001 -1.800000e+001 1.000000e+001
         vertex 3.250000e+001 1.400000e+001 1.000000e+001
      endloop
   endfacet
   facet normal 0.000000e+000 0.000000e+000 1.000000e+000
      outer loop
         vertex 3.003073e+001 1.769552e+001 1.000000e+001
         vertex 3.250000e+001 1.400000e+001 1.000000e+001
         vertex 3.132843e+001 1.682843e+001 1.000000e+001
      endloop
   endfacet
   facet normal -0.000000e+000 0.000000e+000 1.000000e+000
      outer loop
         vertex -2.850000e+001 1.800000e+001 1.000000e+001
         vertex -3.003073e+001 1.769552e+001 1.000000e+001
         vertex -3.250000e+001 1.400000e+001 1.000000e+001
      endloop
   endfacet
   facet normal 0.000000e+000 0.000000e+000 1.000000e+000
      outer loop
         vertex -2.350000e+001 1.300000e+001 1.000000e+001
         vertex -2.200000e+001 1.300000e+001 1.000000e+001
         vertex -2.850000e+001 1.800000e+001 1.000000e+001
      endloop
   endfacet
   facet normal 0.000000e+000 0.000000e+000 1.000000e+000
      outer loop
         vertex -7.000000e+000 1.300000e+001 1.000000e+001
         vertex -2.850000e+001 1.800000e+001 1.000000e+001
         vertex -8.500000e+000 1.300000e+001 1.000000e+001
      endloop
   endfacet
   facet normal 0.000000e+000 0.000000e+000 1.000000e+000
      outer loop
         vertex -2.850000e+001 -1.800000e+001 1.000000e+001
         vertex -3.500000e+000 -1.300000e+001 1.000000e+001
         vertex -7.000000e+000 -1.300000e+001 1.000000e+001
      endloop
   endfacet
   facet normal 0.000000e+000 -0.000000e+000 1.000000e+000
      outer loop
         vertex -2.850000e+001 1.800000e+001 1.000000e+001
         vertex -2.200000e+001 1.300000e+001 1.000000e+001
         vertex -1.850000e+001 1.300000e+001 1.000000e+001
      endloop
   endfacet
   facet normal 0.000000e+000 -0.000000e+000 1.000000e+000
      outer loop
         vertex -2.850000e+001 1.800000e+001 1.000000e+001
         vertex -1.850000e+001 1.300000e+001 1.000000e+001
         vertex -1.700000e+001 1.300000e+001 1.000000e+001
      endloop
   endfacet
   facet normal 0.000000e+000 0.000000e+000 1.000000e+000
      outer loop
         vertex -3.250000e+001 1.400000e+001 1.000000e+001
         vertex -2.350000e+001 1.300000e+001 1.000000e+001
         vertex -2.850000e+001 1.800000e+001 1.000000e+001
      endloop
   endfacet
   facet normal 0.000000e+000 0.000000e+000 1.000000e+000
      outer loop
         vertex -8.500000e+000 1.300000e+001 1.000000e+001
         vertex -2.850000e+001 1.800000e+001 1.000000e+001
         vertex -1.200000e+001 1.300000e+001 1.000000e+001
      endloop
   endfacet
   facet normal 0.000000e+000 0.000000e+000 1.000000e+000
      outer loop
         vertex -1.200000e+001 1.300000e+001 1.000000e+001
         vertex -2.850000e+001 1.800000e+001 1.000000e+001
         vertex -1.350000e+001 1.300000e+001 1.000000e+001
      endloop
   endfacet
   facet normal 0.000000e+000 0.000000e+000 1.000000e+000
      outer loop
         vertex -2.200000e+001 -1.300000e+001 1.000000e+001
         vertex -2.850000e+001 -1.800000e+001 1.000000e+001
         vertex -1.850000e+001 -1.300000e+001 1.000000e+001
      endloop
   endfacet
   facet normal 0.000000e+000 0.000000e+000 1.000000e+000
      outer loop
         vertex -1.350000e+001 1.300000e+001 1.000000e+001
         vertex -2.850000e+001 1.800000e+001 1.000000e+001
         vertex -1.700000e+001 1.300000e+001 1.000000e+001
      endloop
   endfacet
   facet normal 0.000000e+000 0.000000e+000 1.000000e+000
      outer loop
         vertex -2.850000e+001 -1.800000e+001 1.000000e+001
         vertex -7.000000e+000 -1.300000e+001 1.000000e+001
         vertex -8.500000e+000 -1.300000e+001 1.000000e+001
      endloop
   endfacet
   facet normal 0.000000e+000 0.000000e+000 1.000000e+000
      outer loop
         vertex -1.850000e+001 -1.300000e+001 1.000000e+001
         vertex -2.850000e+001 -1.800000e+001 1.000000e+001
         vertex -1.700000e+001 -1.300000e+001 1.000000e+001
      endloop
   endfacet
   facet normal 0.000000e+000 0.000000e+000 1.000000e+000
      outer loop
         vertex -2.850000e+001 -1.800000e+001 1.000000e+001
         vertex -8.500000e+000 -1.300000e+001 1.000000e+001
         vertex -1.200000e+001 -1.300000e+001 1.000000e+001
      endloop
   endfacet
   facet normal 0.000000e+000 0.000000e+000 1.000000e+000
      outer loop
         vertex -1.700000e+001 -1.300000e+001 1.000000e+001
         vertex -2.850000e+001 -1.800000e+001 1.000000e+001
         vertex -1.350000e+001 -1.300000e+001 1.000000e+001
      endloop
   endfacet
   facet normal 0.000000e+000 0.000000e+000 1.000000e+000
      outer loop
         vertex -2.850000e+001 -1.800000e+001 1.000000e+001
         vertex -1.200000e+001 -1.300000e+001 1.000000e+001
         vertex -1.350000e+001 -1.300000e+001 1.000000e+001
      endloop
   endfacet
   facet normal 0.000000e+000 -1.000000e+000 0.000000e+000
      outer loop
         vertex -3.500000e+000 1.300000e+001 9.000000e+000
         vertex -2.000000e+000 1.300000e+001 9.000000e+000
         vertex -2.000000e+000 1.300000e+001 1.000000e+001
      endloop
   endfacet
   facet normal -0.000000e+000 -1.000000e+000 0.000000e+000
      outer loop
         vertex -3.500000e+000 1.300000e+001 9.000000e+000
         vertex -2.000000e+000 1.300000e+001 1.000000e+001
         vertex -3.500000e+000 1.300000e+001 1.000000e+001
      endloop
   endfacet
   facet normal -1.000000e+000 0.000000e+000 0.000000e+000
      outer loop
         vertex -2.000000e+000 1.300000e+001 9.000000e+000
         vertex -2.000000e+000 -1.300000e+001 9.000000e+000
         vertex -2.000000e+000 -1.300000e+001 1.000000e+001
      endloop
   endfacet
   facet normal -1.000000e+000 0.000000e+000 0.000000e+000
      outer loop
         vertex -2.000000e+000 1.300000e+001 9.000000e+000
         vertex -2.000000e+000 -1.300000e+001 1.000000e+001
         vertex -2.000000e+000 1.300000e+001 1.000000e+001
      endloop
   endfacet
   facet normal 0.000000e+000 1.000000e+000 0.000000e+000
      outer loop
         vertex -2.000000e+000 -1.300000e+001 9.000000e+000
         vertex -3.500000e+000 -1.300000e+001 9.000000e+000
         vertex -3.500000e+000 -1.300000e+001 1.000000e+001
      endloop
   endfacet
   facet normal -0.000000e+000 1.000000e+000 0.000000e+000
      outer loop
         vertex -2.000000e+000 -1.300000e+001 9.000000e+000
         vertex -3.500000e+000 -1.300000e+001 1.000000e+001
         vertex -2.000000e+000 -1.300000e+001 1.000000e+001
      endloop
   endfacet
   facet normal 1.000000e+000 0.000000e+000 -0.000000e+000
      outer loop
         vertex -3.500000e+000 -1.300000e+001 9.000000e+000
         vertex -3.500000e+000 1.300000e+001 9.000000e+000
         vertex -3.500000e+000 1.300000e+001 1.000000e+001
      endloop
   endfacet
   facet normal 1.000000e+000 0.000000e+000 0.000000e+000
      outer loop
         vertex -3.500000e+000 -1.300000e+001 9.000000e+000
         vertex -3.500000e+000 1.300000e+001 1.000000e+001
         vertex -3.500000e+000 -1.300000e+001 1.000000e+001
      endloop
   endfacet
   facet normal 0.000000e+000 -1.000000e+000 0.000000e+000
      outer loop
         vertex -8.500000e+000 1.300000e+001 9.000000e+000
         vertex -7.000000e+000 1.300000e+001 9.000000e+000
         vertex -7.000000e+000 1.300000e+001 1.000000e+001
      endloop
   endfacet
   facet normal -0.000000e+000 -1.000000e+000 0.000000e+000
      outer loop
         vertex -8.500000e+000 1.300000e+001 9.000000e+000
         vertex -7.000000e+000 1.300000e+001 1.000000e+001
         vertex -8.500000e+000 1.300000e+001 1.000000e+001
      endloop
   endfacet
   facet normal -1.000000e+000 0.000000e+000 0.000000e+000
      outer loop
         vertex -7.000000e+000 1.300000e+001 9.000000e+000
         vertex -7.000000e+000 -1.300000e+001 9.000000e+000
         vertex -7.000000e+000 -1.300000e+001 1.000000e+001
      endloop
   endfacet
   facet normal -1.000000e+000 0.000000e+000 0.000000e+000
      outer loop
         vertex -7.000000e+000 1.300000e+001 9.000000e+000
         vertex -7.000000e+000 -1.300000e+001 1.000000e+001
         vertex -7.000000e+000 1.300000e+001 1.000000e+001
      endloop
   endfacet
   facet normal 0.000000e+000 1.000000e+000 0.000000e+000
      outer loop
         vertex -7.000000e+000 -1.300000e+001 9.000000e+000
         vertex -8.500000e+000 -1.300000e+001 9.000000e+000
         vertex -8.500000e+000 -1.300000e+001 1.000000e+001
      endloop
   endfacet
   facet normal -0.000000e+000 1.000000e+000 0.000000e+000
      outer loop
         vertex -7.000000e+000 -1.300000e+001 9.000000e+000
         vertex -8.500000e+000 -1.300000e+001 1.000000e+001
         vertex -7.000000e+000 -1.300000e+001 1.000000e+001
      endloop
   endfacet
   facet normal 1.000000e+000 0.000000e+000 -0.000000e+000
      outer loop
         vertex -8.500000e+000 -1.300000e+001 9.000000e+000
         vertex -8.500000e+000 1.300000e+001 9.000000e+000
         vertex -8.500000e+000 1.300000e+001 1.000000e+001
      endloop
   endfacet
   facet normal 1.000000e+000 0.000000e+000 0.000000e+000
      outer loop
         vertex -8.500000e+000 -1.300000e+001 9.000000e+000
         vertex -8.500000e+000 1.300000e+001 1.000000e+001
         vertex -8.500000e+000 -1.300000e+001 1.000000e+001
      endloop
   endfacet
   facet normal 0.000000e+000 -1.000000e+000 0.000000e+000
      outer loop
         vertex -1.350000e+001 1.300000e+001 9.000000e+000
         vertex -1.200000e+001 1.300000e+001 9.000000e+000
         vertex -1.200000e+001 1.300000e+001 1.000000e+001
      endloop
   endfacet
   facet normal -0.000000e+000 -1.000000e+000 0.000000e+000
      outer loop
         vertex -1.350000e+001 1.300000e+001 9.000000e+000
         vertex -1.200000e+001 1.300000e+001 1.000000e+001
         vertex -1.350000e+001 1.300000e+001 1.000000e+001
      endloop
   endfacet
   facet normal -1.000000e+000 0.000000e+000 0.000000e+000
      outer loop
         vertex -1.200000e+001 1.300000e+001 9.000000e+000
         vertex -1.200000e+001 -1.300000e+001 9.000000e+000
         vertex -1.200000e+001 -1.300000e+001 1.000000e+001
      endloop
   endfacet
   facet normal -1.000000e+000 0.000000e+000 0.000000e+000
      outer loop
         vertex -1.200000e+001 1.300000e+001 9.000000e+000
         vertex -1.200000e+001 -1.300000e+001 1.000000e+001
         vertex -1.200000e+001 1.300000e+001 1.000000e+001
      endloop
   endfacet
   facet normal 0.000000e+000 1.000000e+000 0.000000e+000
      outer loop
         vertex -1.200000e+001 -1.300000e+001 9.000000e+000
         vertex -1.350000e+001 -1.300000e+001 9.000000e+000
         vertex -1.350000e+001 -1.300000e+001 1.000000e+001
      endloop
   endfacet
   facet normal -0.000000e+000 1.000000e+000 0.000000e+000
      outer loop
         vertex -1.200000e+001 -1.300000e+001 9.000000e+000
         vertex -1.350000e+001 -1.300000e+001 1.000000e+001
         vertex -1.200000e+001 -1.300000e+001 1.000000e+001
      endloop
   endfacet
   facet normal 1.000000e+000 0.000000e+000 -0.000000e+000
      outer loop
         vertex -1.350000e+001 -1.300000e+001 9.000000e+000
         vertex -1.350000e+001 1.300000e+001 9.000000e+000
         vertex -1.350000e+001 1.300000e+001 1.000000e+001
      endloop
   endfacet
   facet normal 1.000000e+000 0.000000e+000 0.000000e+000
      outer loop
         vertex -1.350000e+001 -1.300000e+001 9.000000e+000
         vertex -1.350000e+001 1.300000e+001 1.000000e+001
         vertex -1.350000e+001 -1.300000e+001 1.000000e+001
      endloop
   endfacet
   facet normal 0.000000e+000 -1.000000e+000 0.000000e+000
      outer loop
         vertex -1.850000e+001 1.300000e+001 9.000000e+000
         vertex -1.700000e+001 1.300000e+001 9.000000e+000
         vertex -1.700000e+001 1.300000e+001 1.000000e+001
      endloop
   endfacet
   facet normal -0.000000e+000 -1.000000e+000 0.000000e+000
      outer loop
         vertex -1.850000e+001 1.300000e+001 9.000000e+000
         vertex -1.700000e+001 1.300000e+001 1.000000e+001
         vertex -1.850000e+001 1.300000e+001 1.000000e+001
      endloop
   endfacet
   facet normal -1.000000e+000 0.000000e+000 0.000000e+000
      outer loop
         vertex -1.700000e+001 1.300000e+001 9.000000e+000
         vertex -1.700000e+001 -1.300000e+001 9.000000e+000
         vertex -1.700000e+001 -1.300000e+001 1.000000e+001
      endloop
   endfacet
   facet normal -1.000000e+000 0.000000e+000 0.000000e+000
      outer loop
         vertex -1.700000e+001 1.300000e+001 9.000000e+000
         vertex -1.700000e+001 -1.300000e+001 1.000000e+001
         vertex -1.700000e+001 1.300000e+001 1.000000e+001
      endloop
   endfacet
   facet normal 0.000000e+000 1.000000e+000 0.000000e+000
      outer loop
         vertex -1.700000e+001 -1.300000e+001 9.000000e+000
         vertex -1.850000e+001 -1.300000e+001 9.000000e+000
         vertex -1.850000e+001 -1.300000e+001 1.000000e+001
      endloop
   endfacet
   facet normal -0.000000e+000 1.000000e+000 0.000000e+000
      outer loop
         vertex -1.700000e+001 -1.300000e+001 9.000000e+000
         vertex -1.850000e+001 -1.300000e+001 1.000000e+001
         vertex -1.700000e+001 -1.300000e+001 1.000000e+001
      endloop
   endfacet
   facet normal 1.000000e+000 0.000000e+000 -0.000000e+000
      outer loop
         vertex -1.850000e+001 -1.300000e+001 9.000000e+000
         vertex -1.850000e+001 1.300000e+001 9.000000e+000
         vertex -1.850000e+001 1.300000e+001 1.000000e+001
      endloop
   endfacet
   facet normal 1.000000e+000 0.000000e+000 0.000000e+000
      outer loop
         vertex -1.850000e+001 -1.300000e+001 9.000000e+000
         vertex -1.850000e+001 1.300000e+001 1.000000e+001
         vertex -1.850000e+001 -1.300000e+001 1.000000e+001
      endloop
   endfacet
   facet normal 0.000000e+000 1.000000e+000 0.000000e+000
      outer loop
         vertex -2.860000e+001 -1.710000e+001 0.000000e+000
         vertex 2.860000e+001 -1.710000e+001 9.000000e+000
         vertex 2.860000e+001 -1.710000e+001 0.000000e+000
      endloop
   endfacet
   facet normal 0.000000e+000 1.000000e+000 0.000000e+000
      outer loop
         vertex 2.860000e+001 -1.710000e+001 9.000000e+000
         vertex -2.860000e+001 -1.710000e+001 0.000000e+000
         vertex -2.860000e+001 -1.710000e+001 9.000000e+000
      endloop
   endfacet
   facet normal 2.588188e-001 9.659259e-001 0.000000e+000
      outer loop
         vertex -2.985000e+001 -1.676506e+001 9.000000e+000
         vertex -2.860000e+001 -1.710000e+001 9.000000e+000
         vertex -2.860000e+001 -1.710000e+001 0.000000e+000
      endloop
   endfacet
   facet normal 9.659259e-001 2.588188e-001 0.000000e+000
      outer loop
         vertex -3.110000e+001 -1.460000e+001 0.000000e+000
         vertex -3.110000e+001 -1.460000e+001 9.000000e+000
         vertex -3.076506e+001 -1.585000e+001 9.000000e+000
      endloop
   endfacet
   facet normal 7.071068e-001 7.071068e-001 -0.000000e+000
      outer loop
         vertex -2.985000e+001 -1.676506e+001 9.000000e+000
         vertex -2.985000e+001 -1.676506e+001 0.000000e+000
         vertex -3.076506e+001 -1.585000e+001 0.000000e+000
      endloop
   endfacet
   facet normal 2.588188e-001 9.659259e-001 0.000000e+000
      outer loop
         vertex -2.985000e+001 -1.676506e+001 0.000000e+000
         vertex -2.985000e+001 -1.676506e+001 9.000000e+000
         vertex -2.860000e+001 -1.710000e+001 0.000000e+000
      endloop
   endfacet
   facet normal 7.071068e-001 7.071068e-001 0.000000e+000
      outer loop
         vertex -3.076506e+001 -1.585000e+001 0.000000e+000
         vertex -3.076506e+001 -1.585000e+001 9.000000e+000
         vertex -2.985000e+001 -1.676506e+001 9.000000e+000
      endloop
   endfacet
   facet normal 9.659259e-001 2.588188e-001 0.000000e+000
      outer loop
         vertex -3.076506e+001 -1.585000e+001 0.000000e+000
         vertex -3.110000e+001 -1.460000e+001 0.000000e+000
         vertex -3.076506e+001 -1.585000e+001 9.000000e+000
      endloop
   endfacet
   facet normal 1.000000e+000 -0.000000e+000 0.000000e+000
      outer loop
         vertex -3.110000e+001 1.460000e+001 9.000000e+000
         vertex -3.110000e+001 -1.460000e+001 9.000000e+000
         vertex -3.110000e+001 -1.460000e+001 0.000000e+000
      endloop
   endfacet
   facet normal 1.000000e+000 0.000000e+000 0.000000e+000
      outer loop
         vertex -3.110000e+001 1.460000e+001 9.000000e+000
         vertex -3.110000e+001 -1.460000e+001 0.000000e+000
         vertex -3.110000e+001 1.460000e+001 0.000000e+000
      endloop
   endfacet
   facet normal 9.659259e-001 -2.588188e-001 0.000000e+000
      outer loop
         vertex -3.076506e+001 1.585000e+001 9.000000e+000
         vertex -3.110000e+001 1.460000e+001 9.000000e+000
         vertex -3.110000e+001 1.460000e+001 0.000000e+000
      endloop
   endfacet
   facet normal 2.588188e-001 -9.659259e-001 0.000000e+000
      outer loop
         vertex -2.860000e+001 1.710000e+001 0.000000e+000
         vertex -2.860000e+001 1.710000e+001 9.000000e+000
         vertex -2.985000e+001 1.676506e+001 9.000000e+000
      endloop
   endfacet
   facet normal 7.071068e-001 -7.071068e-001 0.000000e+000
      outer loop
         vertex -3.076506e+001 1.585000e+001 9.000000e+000
         vertex -3.076506e+001 1.585000e+001 0.000000e+000
         vertex -2.985000e+001 1.676506e+001 0.000000e+000
      endloop
   endfacet
   facet normal 9.659259e-001 -2.588188e-001 0.000000e+000
      outer loop
         vertex -3.076506e+001 1.585000e+001 0.000000e+000
         vertex -3.076506e+001 1.585000e+001 9.000000e+000
         vertex -3.110000e+001 1.460000e+001 0.000000e+000
      endloop
   endfacet
   facet normal 7.071068e-001 -7.071068e-001 0.000000e+000
      outer loop
         vertex -2.985000e+001 1.676506e+001 0.000000e+000
         vertex -2.985000e+001 1.676506e+001 9.000000e+000
         vertex -3.076506e+001 1.585000e+001 9.000000e+000
      endloop
   endfacet
   facet normal 2.588188e-001 -9.659259e-001 0.000000e+000
      outer loop
         vertex -2.985000e+001 1.676506e+001 0.000000e+000
         vertex -2.860000e+001 1.710000e+001 0.000000e+000
         vertex -2.985000e+001 1.676506e+001 9.000000e+000
      endloop
   endfacet
   facet normal 0.000000e+000 -1.000000e+000 0.000000e+000
      outer loop
         vertex 2.860000e+001 1.710000e+001 0.000000e+000
         vertex -2.860000e+001 1.710000e+001 9.000000e+000
         vertex -2.860000e+001 1.710000e+001 0.000000e+000
      endloop
   endfacet
   facet normal 0.000000e+000 -1.000000e+000 0.000000e+000
      outer loop
         vertex -2.860000e+001 1.710000e+001 9.000000e+000
         vertex 2.860000e+001 1.710000e+001 0.000000e+000
         vertex 2.860000e+001 1.710000e+001 9.000000e+000
      endloop
   endfacet
   facet normal -2.588188e-001 -9.659259e-001 -0.000000e+000
      outer loop
         vertex 2.985000e+001 1.676506e+001 9.000000e+000
         vertex 2.860000e+001 1.710000e+001 9.000000e+000
         vertex 2.860000e+001 1.710000e+001 0.000000e+000
      endloop
   endfacet
   facet normal -9.659259e-001 -2.588188e-001 -0.000000e+000
      outer loop
         vertex 3.110000e+001 1.460000e+001 0.000000e+000
         vertex 3.110000e+001 1.460000e+001 9.000000e+000
         vertex 3.076506e+001 1.585000e+001 9.000000e+000
      endloop
   endfacet
   facet normal -7.071068e-001 -7.071068e-001 0.000000e+000
      outer loop
         vertex 2.985000e+001 1.676506e+001 9.000000e+000
         vertex 2.985000e+001 1.676506e+001 0.000000e+000
         vertex 3.076506e+001 1.585000e+001 0.000000e+000
      endloop
   endfacet
   facet normal -2.588188e-001 -9.659259e-001 -0.000000e+000
      outer loop
         vertex 2.985000e+001 1.676506e+001 0.000000e+000
         vertex 2.985000e+001 1.676506e+001 9.000000e+000
         vertex 2.860000e+001 1.710000e+001 0.000000e+000
      endloop
   endfacet
   facet normal -7.071068e-001 -7.071068e-001 -0.000000e+000
      outer loop
         vertex 3.076506e+001 1.585000e+001 0.000000e+000
         vertex 3.076506e+001 1.585000e+001 9.000000e+000
         vertex 2.985000e+001 1.676506e+001 9.000000e+000
      endloop
   endfacet
   facet normal -9.659259e-001 -2.588188e-001 0.000000e+000
      outer loop
         vertex 3.076506e+001 1.585000e+001 0.000000e+000
         vertex 3.110000e+001 1.460000e+001 0.000000e+000
         vertex 3.076506e+001 1.585000e+001 9.000000e+000
      endloop
   endfacet
   facet normal -1.000000e+000 0.000000e+000 0.000000e+000
      outer loop
         vertex 3.110000e+001 -7.000000e+000 3.000000e+000
         vertex 3.110000e+001 -1.460000e+001 9.000000e+000
         vertex 3.110000e+001 -7.000000e+000 9.000000e+000
      endloop
   endfacet
   facet normal -1.000000e+000 0.000000e+000 0.000000e+000
      outer loop
         vertex 3.110000e+001 7.000000e+000 3.000000e+000
         vertex 3.110000e+001 1.460000e+001 0.000000e+000
         vertex 3.110000e+001 -1.460000e+001 0.000000e+000
      endloop
   endfacet
   facet normal -1.000000e+000 0.000000e+000 0.000000e+000
      outer loop
         vertex 3.110000e+001 7.000000e+000 3.000000e+000
         vertex 3.110000e+001 7.000000e+000 9.000000e+000
         vertex 3.110000e+001 1.460000e+001 9.000000e+000
      endloop
   endfacet
   facet normal -1.000000e+000 0.000000e+000 0.000000e+000
      outer loop
         vertex 3.110000e+001 -1.460000e+001 0.000000e+000
         vertex 3.110000e+001 -1.460000e+001 9.000000e+000
         vertex 3.110000e+001 -7.000000e+000 3.000000e+000
      endloop
   endfacet
   facet normal -1.000000e+000 0.000000e+000 0.000000e+000
      outer loop
         vertex 3.110000e+001 1.460000e+001 0.000000e+000
         vertex 3.110000e+001 7.000000e+000 3.000000e+000
         vertex 3.110000e+001 1.460000e+001 9.000000e+000
      endloop
   endfacet
   facet normal -1.000000e+000 0.000000e+000 -0.000000e+000
      outer loop
         vertex 3.110000e+001 -1.460000e+001 0.000000e+000
         vertex 3.110000e+001 -7.000000e+000 3.000000e+000
         vertex 3.110000e+001 7.000000e+000 3.000000e+000
      endloop
   endfacet
   facet normal -0.000000e+000 -1.000000e+000 -0.000000e+000
      outer loop
         vertex 3.250000e+001 7.000000e+000 3.000000e+000
         vertex 3.250000e+001 7.000000e+000 9.000000e+000
         vertex 3.110000e+001 7.000000e+000 9.000000e+000
      endloop
   endfacet
   facet normal 0.000000e+000 -1.000000e+000 0.000000e+000
      outer loop
         vertex 3.250000e+001 7.000000e+000 3.000000e+000
         vertex 3.110000e+001 7.000000e+000 9.000000e+000
         vertex 3.110000e+001 7.000000e+000 3.000000e+000
      endloop
   endfacet
   facet normal 1.000000e+000 0.000000e+000 0.000000e+000
      outer loop
         vertex 3.250000e+001 -1.400000e+001 3.000000e+000
         vertex 3.250000e+001 -1.400000e+001 0.000000e+000
         vertex 3.250000e+001 -7.000000e+000 3.000000e+000
      endloop
   endfacet
   facet normal 1.000000e+000 0.000000e+000 0.000000e+000
      outer loop
         vertex 3.250000e+001 1.400000e+001 0.000000e+000
         vertex 3.250000e+001 1.400000e+001 3.000000e+000
         vertex 3.250000e+001 7.000000e+000 3.000000e+000
      endloop
   endfacet
   facet normal 1.000000e+000 0.000000e+000 0.000000e+000
      outer loop
         vertex 3.250000e+001 1.400000e+001 9.000000e+000
         vertex 3.250000e+001 1.400000e+001 1.000000e+001
         vertex 3.250000e+001 7.000000e+000 9.000000e+000
      endloop
   endfacet
   facet normal 1.000000e+000 0.000000e+000 0.000000e+000
      outer loop
         vertex 3.250000e+001 -1.400000e+001 1.000000e+001
         vertex 3.250000e+001 -1.400000e+001 9.000000e+000
         vertex 3.250000e+001 -7.000000e+000 9.000000e+000
      endloop
   endfacet
   facet normal 1.000000e+000 0.000000e+000 0.000000e+000
      outer loop
         vertex 3.250000e+001 -7.000000e+000 3.000000e+000
         vertex 3.250000e+001 -7.000000e+000 9.000000e+000
         vertex 3.250000e+001 -1.400000e+001 3.000000e+000
      endloop
   endfacet
   facet normal 1.000000e+000 0.000000e+000 0.000000e+000
      outer loop
         vertex 3.250000e+001 7.000000e+000 9.000000e+000
         vertex 3.250000e+001 7.000000e+000 3.000000e+000
         vertex 3.250000e+001 1.400000e+001 3.000000e+000
      endloop
   endfacet
   facet normal 1.000000e+000 0.000000e+000 0.000000e+000
      outer loop
         vertex 3.250000e+001 -7.000000e+000 3.000000e+000
         vertex 3.250000e+001 -1.400000e+001 0.000000e+000
         vertex 3.250000e+001 1.400000e+001 0.000000e+000
      endloop
   endfacet
   facet normal 1.000000e+000 0.000000e+000 0.000000e+000
      outer loop
         vertex 3.250000e+001 7.000000e+000 9.000000e+000
         vertex 3.250000e+001 1.400000e+001 1.000000e+001
         vertex 3.250000e+001 -1.400000e+001 1.000000e+001
      endloop
   endfacet
   facet normal 1.000000e+000 0.000000e+000 0.000000e+000
      outer loop
         vertex 3.250000e+001 -1.400000e+001 3.000000e+000
         vertex 3.250000e+001 -7.000000e+000 9.000000e+000
         vertex 3.250000e+001 -1.400000e+001 9.000000e+000
      endloop
   endfacet
   facet normal 1.000000e+000 0.000000e+000 0.000000e+000
      outer loop
         vertex 3.250000e+001 1.400000e+001 3.000000e+000
         vertex 3.250000e+001 1.400000e+001 9.000000e+000
         vertex 3.250000e+001 7.000000e+000 9.000000e+000
      endloop
   endfacet
   facet normal 1.000000e+000 -0.000000e+000 0.000000e+000
      outer loop
         vertex 3.250000e+001 7.000000e+000 3.000000e+000
         vertex 3.250000e+001 -7.000000e+000 3.000000e+000
         vertex 3.250000e+001 1.400000e+001 0.000000e+000
      endloop
   endfacet
   facet normal 1.000000e+000 0.000000e+000 0.000000e+000
      outer loop
         vertex 3.250000e+001 7.000000e+000 9.000000e+000
         vertex 3.250000e+001 -1.400000e+001 1.000000e+001
         vertex 3.250000e+001 -7.000000e+000 9.000000e+000
      endloop
   endfacet
   facet normal 0.000000e+000 1.000000e+000 -0.000000e+000
      outer loop
         vertex 3.250000e+001 -7.000000e+000 9.000000e+000
         vertex 3.250000e+001 -7.000000e+000 3.000000e+000
         vertex 3.110000e+001 -7.000000e+000 3.000000e+000
      endloop
   endfacet
   facet normal 0.000000e+000 1.000000e+000 0.000000e+000
      outer loop
         vertex 3.250000e+001 -7.000000e+000 9.000000e+000
         vertex 3.110000e+001 -7.000000e+000 3.000000e+000
         vertex 3.110000e+001 -7.000000e+000 9.000000e+000
      endloop
   endfacet
   facet normal -9.659259e-001 2.588188e-001 0.000000e+000
      outer loop
         vertex 3.076506e+001 -1.585000e+001 9.000000e+000
         vertex 3.110000e+001 -1.460000e+001 9.000000e+000
         vertex 3.110000e+001 -1.460000e+001 0.000000e+000
      endloop
   endfacet
   facet normal -2.588188e-001 9.659259e-001 0.000000e+000
      outer loop
         vertex 2.860000e+001 -1.710000e+001 0.000000e+000
         vertex 2.860000e+001 -1.710000e+001 9.000000e+000
         vertex 2.985000e+001 -1.676506e+001 9.000000e+000
      endloop
   endfacet
   facet normal -7.071068e-001 7.071068e-001 0.000000e+000
      outer loop
         vertex 3.076506e+001 -1.585000e+001 9.000000e+000
         vertex 3.076506e+001 -1.585000e+001 0.000000e+000
         vertex 2.985000e+001 -1.676506e+001 0.000000e+000
      endloop
   endfacet
   facet normal -9.659259e-001 2.588188e-001 0.000000e+000
      outer loop
         vertex 3.076506e+001 -1.585000e+001 0.000000e+000
         vertex 3.076506e+001 -1.585000e+001 9.000000e+000
         vertex 3.110000e+001 -1.460000e+001 0.000000e+000
      endloop
   endfacet
   facet normal -7.071068e-001 7.071068e-001 0.000000e+000
      outer loop
         vertex 2.985000e+001 -1.676506e+001 0.000000e+000
         vertex 2.985000e+001 -1.676506e+001 9.000000e+000
         vertex 3.076506e+001 -1.585000e+001 9.000000e+000
      endloop
   endfacet
   facet normal -2.588188e-001 9.659259e-001 0.000000e+000
      outer loop
         vertex 2.985000e+001 -1.676506e+001 0.000000e+000
         vertex 2.860000e+001 -1.710000e+001 0.000000e+000
         vertex 2.985000e+001 -1.676506e+001 9.000000e+000
      endloop
   endfacet
   facet normal 1.000000e+000 -0.000000e+000 0.000000e+000
      outer loop
         vertex -2.350000e+001 1.300000e+001 1.000000e+001
         vertex -2.350000e+001 -1.300000e+001 1.000000e+001
         vertex -2.350000e+001 -1.300000e+001 9.000000e+000
      endloop
   endfacet
   facet normal 1.000000e+000 0.000000e+000 0.000000e+000
      outer loop
         vertex -2.350000e+001 1.300000e+001 1.000000e+001
         vertex -2.350000e+001 -1.300000e+001 9.000000e+000
         vertex -2.350000e+001 1.300000e+001 9.000000e+000
      endloop
   endfacet
   facet normal 0.000000e+000 1.000000e+000 0.000000e+000
      outer loop
         vertex -2.350000e+001 -1.300000e+001 1.000000e+001
         vertex -2.200000e+001 -1.300000e+001 1.000000e+001
         vertex -2.200000e+001 -1.300000e+001 9.000000e+000
      endloop
   endfacet
   facet normal 0.000000e+000 1.000000e+000 0.000000e+000
      outer loop
         vertex -2.350000e+001 -1.300000e+001 1.000000e+001
         vertex -2.200000e+001 -1.300000e+001 9.000000e+000
         vertex -2.350000e+001 -1.300000e+001 9.000000e+000
      endloop
   endfacet
   facet normal -1.000000e+000 -0.000000e+000 -0.000000e+000
      outer loop
         vertex -2.200000e+001 -1.300000e+001 1.000000e+001
         vertex -2.200000e+001 1.300000e+001 1.000000e+001
         vertex -2.200000e+001 1.300000e+001 9.000000e+000
      endloop
   endfacet
   facet normal -1.000000e+000 0.000000e+000 0.000000e+000
      outer loop
         vertex -2.200000e+001 -1.300000e+001 1.000000e+001
         vertex -2.200000e+001 1.300000e+001 9.000000e+000
         vertex -2.200000e+001 -1.300000e+001 9.000000e+000
      endloop
   endfacet
   facet normal 0.000000e+000 -1.000000e+000 0.000000e+000
      outer loop
         vertex -2.200000e+001 1.300000e+001 1.000000e+001
         vertex -2.350000e+001 1.300000e+001 1.000000e+001
         vertex -2.350000e+001 1.300000e+001 9.000000e+000
      endloop
   endfacet
   facet normal 0.000000e+000 -1.000000e+000 0.000000e+000
      outer loop
         vertex -2.200000e+001 1.300000e+001 1.000000e+001
         vertex -2.350000e+001 1.300000e+001 9.000000e+000
         vertex -2.200000e+001 1.300000e+001 9.000000e+000
      endloop
   endfacet
   facet normal 1.950902e-001 -9.807853e-001 0.000000e+000
      outer loop
         vertex 2.850000e+001 -1.800000e+001 1.000000e+001
         vertex 2.850000e+001 -1.800000e+001 0.000000e+000
         vertex 3.003073e+001 -1.769552e+001 0.000000e+000
      endloop
   endfacet
   facet normal 8.314691e-001 -5.555711e-001 0.000000e+000
      outer loop
         vertex 3.132843e+001 -1.682843e+001 0.000000e+000
         vertex 3.219552e+001 -1.553073e+001 0.000000e+000
         vertex 3.219552e+001 -1.553073e+001 1.000000e+001
      endloop
   endfacet
   facet normal 9.807853e-001 -1.950901e-001 0.000000e+000
      outer loop
         vertex 3.250000e+001 -1.400000e+001 0.000000e+000
         vertex 3.250000e+001 -1.400000e+001 1.000000e+001
         vertex 3.219552e+001 -1.553073e+001 0.000000e+000
      endloop
   endfacet
   facet normal 5.555708e-001 -8.314693e-001 0.000000e+000
      outer loop
         vertex 3.132843e+001 -1.682843e+001 1.000000e+001
         vertex 3.003073e+001 -1.769552e+001 1.000000e+001
         vertex 3.003073e+001 -1.769552e+001 0.000000e+000
      endloop
   endfacet
   facet normal 1.950902e-001 -9.807853e-001 0.000000e+000
      outer loop
         vertex 2.850000e+001 -1.800000e+001 1.000000e+001
         vertex 3.003073e+001 -1.769552e+001 0.000000e+000
         vertex 3.003073e+001 -1.769552e+001 1.000000e+001
      endloop
   endfacet
   facet normal 9.807853e-001 -1.950901e-001 0.000000e+000
      outer loop
         vertex 3.219552e+001 -1.553073e+001 0.000000e+000
         vertex 3.250000e+001 -1.400000e+001 1.000000e+001
         vertex 3.219552e+001 -1.553073e+001 1.000000e+001
      endloop
   endfacet
   facet normal 5.555708e-001 -8.314693e-001 0.000000e+000
      outer loop
         vertex 3.003073e+001 -1.769552e+001 0.000000e+000
         vertex 3.132843e+001 -1.682843e+001 0.000000e+000
         vertex 3.132843e+001 -1.682843e+001 1.000000e+001
      endloop
   endfacet
   facet normal 8.314691e-001 -5.555711e-001 0.000000e+000
      outer loop
         vertex 3.132843e+001 -1.682843e+001 0.000000e+000
         vertex 3.219552e+001 -1.553073e+001 1.000000e+001
         vertex 3.132843e+001 -1.682843e+001 1.000000e+001
      endloop
   endfacet
   facet normal 9.807853e-001 1.950901e-001 -0.000000e+000
      outer loop
         vertex 3.250000e+001 1.400000e+001 1.000000e+001
         vertex 3.250000e+001 1.400000e+001 0.000000e+000
         vertex 3.219552e+001 1.553073e+001 0.000000e+000
      endloop
   endfacet
   facet normal 5.555708e-001 8.314693e-001 -0.000000e+000
      outer loop
         vertex 3.132843e+001 1.682843e+001 0.000000e+000
         vertex 3.003073e+001 1.769552e+001 0.000000e+000
         vertex 3.003073e+001 1.769552e+001 1.000000e+001
      endloop
   endfacet
   facet normal 1.950902e-001 9.807853e-001 0.000000e+000
      outer loop
         vertex 2.850000e+001 1.800000e+001 0.000000e+000
         vertex 2.850000e+001 1.800000e+001 1.000000e+001
         vertex 3.003073e+001 1.769552e+001 0.000000e+000
      endloop
   endfacet
   facet normal 8.314691e-001 5.555711e-001 0.000000e+000
      outer loop
         vertex 3.132843e+001 1.682843e+001 1.000000e+001
         vertex 3.219552e+001 1.553073e+001 1.000000e+001
         vertex 3.219552e+001 1.553073e+001 0.000000e+000
      endloop
   endfacet
   facet normal 9.807853e-001 1.950901e-001 -0.000000e+000
      outer loop
         vertex 3.250000e+001 1.400000e+001 1.000000e+001
         vertex 3.219552e+001 1.553073e+001 0.000000e+000
         vertex 3.219552e+001 1.553073e+001 1.000000e+001
      endloop
   endfacet
   facet normal 1.950902e-001 9.807853e-001 0.000000e+000
      outer loop
         vertex 3.003073e+001 1.769552e+001 0.000000e+000
         vertex 2.850000e+001 1.800000e+001 1.000000e+001
         vertex 3.003073e+001 1.769552e+001 1.000000e+001
      endloop
   endfacet
   facet normal 8.314691e-001 5.555711e-001 -0.000000e+000
      outer loop
         vertex 3.219552e+001 1.553073e+001 0.000000e+000
         vertex 3.132843e+001 1.682843e+001 0.000000e+000
         vertex 3.132843e+001 1.682843e+001 1.000000e+001
      endloop
   endfacet
   facet normal 5.555708e-001 8.314693e-001 0.000000e+000
      outer loop
         vertex 3.132843e+001 1.682843e+001 0.000000e+000
         vertex 3.003073e+001 1.769552e+001 1.000000e+001
         vertex 3.132843e+001 1.682843e+001 1.000000e+001
      endloop
   endfacet
   facet normal 0.000000e+000 1.000000e+000 -0.000000e+000
      outer loop
         vertex 2.850000e+001 1.800000e+001 1.000000e+001
         vertex 2.850000e+001 1.800000e+001 0.000000e+000
         vertex -2.850000e+001 1.800000e+001 0.000000e+000
      endloop
   endfacet
   facet normal 0.000000e+000 1.000000e+000 0.000000e+000
      outer loop
         vertex -2.850000e+001 1.800000e+001 1.000000e+001
         vertex 2.850000e+001 1.800000e+001 1.000000e+001
         vertex -2.850000e+001 1.800000e+001 0.000000e+000
      endloop
   endfacet
   facet normal -1.950902e-001 9.807853e-001 0.000000e+000
      outer loop
         vertex -2.850000e+001 1.800000e+001 1.000000e+001
         vertex -2.850000e+001 1.800000e+001 0.000000e+000
         vertex -3.003073e+001 1.769552e+001 0.000000e+000
      endloop
   endfacet
   facet normal -8.314691e-001 5.555711e-001 0.000000e+000
      outer loop
         vertex -3.132843e+001 1.682843e+001 0.000000e+000
         vertex -3.219552e+001 1.553073e+001 0.000000e+000
         vertex -3.219552e+001 1.553073e+001 1.000000e+001
      endloop
   endfacet
   facet normal -9.807853e-001 1.950901e-001 0.000000e+000
      outer loop
         vertex -3.250000e+001 1.400000e+001 0.000000e+000
         vertex -3.250000e+001 1.400000e+001 1.000000e+001
         vertex -3.219552e+001 1.553073e+001 0.000000e+000
      endloop
   endfacet
   facet normal -5.555708e-001 8.314693e-001 0.000000e+000
      outer loop
         vertex -3.132843e+001 1.682843e+001 1.000000e+001
         vertex -3.003073e+001 1.769552e+001 1.000000e+001
         vertex -3.003073e+001 1.769552e+001 0.000000e+000
      endloop
   endfacet
   facet normal -1.950902e-001 9.807853e-001 0.000000e+000
      outer loop
         vertex -2.850000e+001 1.800000e+001 1.000000e+001
         vertex -3.003073e+001 1.769552e+001 0.000000e+000
         vertex -3.003073e+001 1.769552e+001 1.000000e+001
      endloop
   endfacet
   facet normal -9.807853e-001 1.950901e-001 0.000000e+000
      outer loop
         vertex -3.219552e+001 1.553073e+001 0.000000e+000
         vertex -3.250000e+001 1.400000e+001 1.000000e+001
         vertex -3.219552e+001 1.553073e+001 1.000000e+001
      endloop
   endfacet
   facet normal -5.555708e-001 8.314693e-001 0.000000e+000
      outer loop
         vertex -3.003073e+001 1.769552e+001 0.000000e+000
         vertex -3.132843e+001 1.682843e+001 0.000000e+000
         vertex -3.132843e+001 1.682843e+001 1.000000e+001
      endloop
   endfacet
   facet normal -8.314691e-001 5.555711e-001 0.000000e+000
      outer loop
         vertex -3.132843e+001 1.682843e+001 0.000000e+000
         vertex -3.219552e+001 1.553073e+001 1.000000e+001
         vertex -3.132843e+001 1.682843e+001 1.000000e+001
      endloop
   endfacet
   facet normal -1.000000e+000 0.000000e+000 0.000000e+000
      outer loop
         vertex -3.250000e+001 1.400000e+001 1.000000e+001
         vertex -3.250000e+001 1.400000e+001 0.000000e+000
         vertex -3.250000e+001 -1.400000e+001 0.000000e+000
      endloop
   endfacet
   facet normal -1.000000e+000 -0.000000e+000 0.000000e+000
      outer loop
         vertex -3.250000e+001 -1.400000e+001 1.000000e+001
         vertex -3.250000e+001 1.400000e+001 1.000000e+001
         vertex -3.250000e+001 -1.400000e+001 0.000000e+000
      endloop
   endfacet
   facet normal -9.807853e-001 -1.950901e-001 0.000000e+000
      outer loop
         vertex -3.250000e+001 -1.400000e+001 1.000000e+001
         vertex -3.250000e+001 -1.400000e+001 0.000000e+000
         vertex -3.219552e+001 -1.553073e+001 0.000000e+000
      endloop
   endfacet
   facet normal -5.555708e-001 -8.314693e-001 0.000000e+000
      outer loop
         vertex -3.132843e+001 -1.682843e+001 0.000000e+000
         vertex -3.003073e+001 -1.769552e+001 0.000000e+000
         vertex -3.003073e+001 -1.769552e+001 1.000000e+001
      endloop
   endfacet
   facet normal -1.950902e-001 -9.807853e-001 -0.000000e+000
      outer loop
         vertex -2.850000e+001 -1.800000e+001 0.000000e+000
         vertex -2.850000e+001 -1.800000e+001 1.000000e+001
         vertex -3.003073e+001 -1.769552e+001 0.000000e+000
      endloop
   endfacet
   facet normal -8.314691e-001 -5.555711e-001 -0.000000e+000
      outer loop
         vertex -3.132843e+001 -1.682843e+001 1.000000e+001
         vertex -3.219552e+001 -1.553073e+001 1.000000e+001
         vertex -3.219552e+001 -1.553073e+001 0.000000e+000
      endloop
   endfacet
   facet normal -9.807853e-001 -1.950901e-001 0.000000e+000
      outer loop
         vertex -3.250000e+001 -1.400000e+001 1.000000e+001
         vertex -3.219552e+001 -1.553073e+001 0.000000e+000
         vertex -3.219552e+001 -1.553073e+001 1.000000e+001
      endloop
   endfacet
   facet normal -1.950902e-001 -9.807853e-001 0.000000e+000
      outer loop
         vertex -3.003073e+001 -1.769552e+001 0.000000e+000
         vertex -2.850000e+001 -1.800000e+001 1.000000e+001
         vertex -3.003073e+001 -1.769552e+001 1.000000e+001
      endloop
   endfacet
   facet normal -8.314691e-001 -5.555711e-001 0.000000e+000
      outer loop
         vertex -3.219552e+001 -1.553073e+001 0.000000e+000
         vertex -3.132843e+001 -1.682843e+001 0.000000e+000
         vertex -3.132843e+001 -1.682843e+001 1.000000e+001
      endloop
   endfacet
   facet normal -5.555708e-001 -8.314693e-001 0.000000e+000
      outer loop
         vertex -3.132843e+001 -1.682843e+001 0.000000e+000
         vertex -3.003073e+001 -1.769552e+001 1.000000e+001
         vertex -3.132843e+001 -1.682843e+001 1.000000e+001
      endloop
   endfacet
   facet normal 0.000000e+000 -1.000000e+000 0.000000e+000
      outer loop
         vertex -2.850000e+001 -1.800000e+001 1.000000e+001
         vertex -2.850000e+001 -1.800000e+001 0.000000e+000
         vertex 2.850000e+001 -1.800000e+001 0.000000e+000
      endloop
   endfacet
   facet normal 0.000000e+000 -1.000000e+000 0.000000e+000
      outer loop
         vertex 2.850000e+001 -1.800000e+001 1.000000e+001
         vertex -2.850000e+001 -1.800000e+001 1.000000e+001
         vertex 2.850000e+001 -1.800000e+001 0.000000e+000
      endloop
   endfacet
   facet normal -0.000000e+000 0.000000e+000 -1.000000e+000
      outer loop
         vertex 2.860000e+001 -1.710000e+001 0.000000e+000
         vertex 3.003073e+001 -1.769552e+001 0.000000e+000
         vertex 2.850000e+001 -1.800000e+001 0.000000e+000
      endloop
   endfacet
   facet normal 0.000000e+000 0.000000e+000 -1.000000e+000
      outer loop
         vertex 3.076506e+001 -1.585000e+001 0.000000e+000
         vertex 3.219552e+001 -1.553073e+001 0.000000e+000
         vertex 3.132843e+001 -1.682843e+001 0.000000e+000
      endloop
   endfacet
   facet normal 0.000000e+000 -0.000000e+000 -1.000000e+000
      outer loop
         vertex 3.110000e+001 -1.460000e+001 0.000000e+000
         vertex 3.250000e+001 1.400000e+001 0.000000e+000
         vertex 3.250000e+001 -1.400000e+001 0.000000e+000
      endloop
   endfacet
   facet normal 0.000000e+000 -0.000000e+000 -1.000000e+000
      outer loop
         vertex 3.076506e+001 1.585000e+001 0.000000e+000
         vertex 3.132843e+001 1.682843e+001 0.000000e+000
         vertex 3.219552e+001 1.553073e+001 0.000000e+000
      endloop
   endfacet
   facet normal 0.000000e+000 0.000000e+000 -1.000000e+000
      outer loop
         vertex 2.860000e+001 1.710000e+001 0.000000e+000
         vertex 2.850000e+001 1.800000e+001 0.000000e+000
         vertex 3.003073e+001 1.769552e+001 0.000000e+000
      endloop
   endfacet
   facet normal 0.000000e+000 0.000000e+000 -1.000000e+000
      outer loop
         vertex -2.860000e+001 1.710000e+001 0.000000e+000
         vertex -3.003073e+001 1.769552e+001 0.000000e+000
         vertex -2.850000e+001 1.800000e+001 0.000000e+000
      endloop
   endfacet
   facet normal 0.000000e+000 0.000000e+000 -1.000000e+000
      outer loop
         vertex -3.076506e+001 1.585000e+001 0.000000e+000
         vertex -3.219552e+001 1.553073e+001 0.000000e+000
         vertex -3.132843e+001 1.682843e+001 0.000000e+000
      endloop
   endfacet
   facet normal 0.000000e+000 0.000000e+000 -1.000000e+000
      outer loop
         vertex -3.110000e+001 -1.460000e+001 0.000000e+000
         vertex -3.250000e+001 -1.400000e+001 0.000000e+000
         vertex -3.250000e+001 1.400000e+001 0.000000e+000
      endloop
   endfacet
   facet normal 0.000000e+000 0.000000e+000 -1.000000e+000
      outer loop
         vertex -3.076506e+001 -1.585000e+001 0.000000e+000
         vertex -3.132843e+001 -1.682843e+001 0.000000e+000
         vertex -3.219552e+001 -1.553073e+001 0.000000e+000
      endloop
   endfacet
   facet normal 0.000000e+000 0.000000e+000 -1.000000e+000
      outer loop
         vertex -2.860000e+001 -1.710000e+001 0.000000e+000
         vertex -2.850000e+001 -1.800000e+001 0.000000e+000
         vertex -3.003073e+001 -1.769552e+001 0.000000e+000
      endloop
   endfacet
   facet normal 0.000000e+000 0.000000e+000 -1.000000e+000
      outer loop
         vertex -2.850000e+001 -1.800000e+001 0.000000e+000
         vertex -2.860000e+001 -1.710000e+001 0.000000e+000
         vertex 2.860000e+001 -1.710000e+001 0.000000e+000
      endloop
   endfacet
   facet normal 0.000000e+000 -0.000000e+000 -1.000000e+000
      outer loop
         vertex -3.132843e+001 -1.682843e+001 0.000000e+000
         vertex -3.076506e+001 -1.585000e+001 0.000000e+000
         vertex -2.985000e+001 -1.676506e+001 0.000000e+000
      endloop
   endfacet
   facet normal 0.000000e+000 -0.000000e+000 -1.000000e+000
      outer loop
         vertex -3.250000e+001 1.400000e+001 0.000000e+000
         vertex -3.110000e+001 1.460000e+001 0.000000e+000
         vertex -3.110000e+001 -1.460000e+001 0.000000e+000
      endloop
   endfacet
   facet normal -0.000000e+000 0.000000e+000 -1.000000e+000
      outer loop
         vertex -3.132843e+001 1.682843e+001 0.000000e+000
         vertex -2.985000e+001 1.676506e+001 0.000000e+000
         vertex -3.076506e+001 1.585000e+001 0.000000e+000
      endloop
   endfacet
   facet normal 0.000000e+000 0.000000e+000 -1.000000e+000
      outer loop
         vertex -2.850000e+001 1.800000e+001 0.000000e+000
         vertex 2.860000e+001 1.710000e+001 0.000000e+000
         vertex -2.860000e+001 1.710000e+001 0.000000e+000
      endloop
   endfacet
   facet normal 0.000000e+000 0.000000e+000 -1.000000e+000
      outer loop
         vertex 3.132843e+001 1.682843e+001 0.000000e+000
         vertex 3.076506e+001 1.585000e+001 0.000000e+000
         vertex 2.985000e+001 1.676506e+001 0.000000e+000
      endloop
   endfacet
   facet normal 0.000000e+000 0.000000e+000 -1.000000e+000
      outer loop
         vertex 3.250000e+001 1.400000e+001 0.000000e+000
         vertex 3.110000e+001 -1.460000e+001 0.000000e+000
         vertex 3.110000e+001 1.460000e+001 0.000000e+000
      endloop
   endfacet
   facet normal 0.000000e+000 0.000000e+000 -1.000000e+000
      outer loop
         vertex 3.132843e+001 -1.682843e+001 0.000000e+000
         vertex 2.985000e+001 -1.676506e+001 0.000000e+000
         vertex 3.076506e+001 -1.585000e+001 0.000000e+000
      endloop
   endfacet
   facet normal 0.000000e+000 0.000000e+000 -1.000000e+000
      outer loop
         vertex -2.850000e+001 -1.800000e+001 0.000000e+000
         vertex 2.860000e+001 -1.710000e+001 0.000000e+000
         vertex 2.850000e+001 -1.800000e+001 0.000000e+000
      endloop
   endfacet
   facet normal 0.000000e+000 0.000000e+000 -1.000000e+000
      outer loop
         vertex 3.219552e+001 -1.553073e+001 0.000000e+000
         vertex 3.110000e+001 -1.460000e+001 0.000000e+000
         vertex 3.250000e+001 -1.400000e+001 0.000000e+000
      endloop
   endfacet
   facet normal -0.000000e+000 -0.000000e+000 -1.000000e+000
      outer loop
         vertex -2.850000e+001 1.800000e+001 0.000000e+000
         vertex 2.850000e+001 1.800000e+001 0.000000e+000
         vertex 2.860000e+001 1.710000e+001 0.000000e+000
      endloop
   endfacet
   facet normal 0.000000e+000 0.000000e+000 -1.000000e+000
      outer loop
         vertex -3.219552e+001 -1.553073e+001 0.000000e+000
         vertex -3.250000e+001 -1.400000e+001 0.000000e+000
         vertex -3.110000e+001 -1.460000e+001 0.000000e+000
      endloop
   endfacet
   facet normal 0.000000e+000 0.000000e+000 -1.000000e+000
      outer loop
         vertex -3.003073e+001 -1.769552e+001 0.000000e+000
         vertex -3.132843e+001 -1.682843e+001 0.000000e+000
         vertex -2.985000e+001 -1.676506e+001 0.000000e+000
      endloop
   endfacet
   facet normal -0.000000e+000 0.000000e+000 -1.000000e+000
      outer loop
         vertex 3.003073e+001 1.769552e+001 0.000000e+000
         vertex 3.132843e+001 1.682843e+001 0.000000e+000
         vertex 2.985000e+001 1.676506e+001 0.000000e+000
      endloop
   endfacet
   facet normal 0.000000e+000 -0.000000e+000 -1.000000e+000
      outer loop
         vertex 3.076506e+001 -1.585000e+001 0.000000e+000
         vertex 3.110000e+001 -1.460000e+001 0.000000e+000
         vertex 3.219552e+001 -1.553073e+001 0.000000e+000
      endloop
   endfacet
   facet normal -0.000000e+000 0.000000e+000 -1.000000e+000
      outer loop
         vertex 2.985000e+001 -1.676506e+001 0.000000e+000
         vertex 3.132843e+001 -1.682843e+001 0.000000e+000
         vertex 3.003073e+001 -1.769552e+001 0.000000e+000
      endloop
   endfacet
   facet normal 0.000000e+000 0.000000e+000 -1.000000e+000
      outer loop
         vertex -2.985000e+001 1.676506e+001 0.000000e+000
         vertex -3.132843e+001 1.682843e+001 0.000000e+000
         vertex -3.003073e+001 1.769552e+001 0.000000e+000
      endloop
   endfacet
   facet normal 0.000000e+000 -0.000000e+000 -1.000000e+000
      outer loop
         vertex -3.003073e+001 -1.769552e+001 0.000000e+000
         vertex -2.985000e+001 -1.676506e+001 0.000000e+000
         vertex -2.860000e+001 -1.710000e+001 0.000000e+000
      endloop
   endfacet
   facet normal 0.000000e+000 0.000000e+000 -1.000000e+000
      outer loop
         vertex -3.219552e+001 1.553073e+001 0.000000e+000
         vertex -3.076506e+001 1.585000e+001 0.000000e+000
         vertex -3.110000e+001 1.460000e+001 0.000000e+000
      endloop
   endfacet
   facet normal 0.000000e+000 0.000000e+000 -1.000000e+000
      outer loop
         vertex 3.003073e+001 1.769552e+001 0.000000e+000
         vertex 2.985000e+001 1.676506e+001 0.000000e+000
         vertex 2.860000e+001 1.710000e+001 0.000000e+000
      endloop
   endfacet
   facet normal 0.000000e+000 0.000000e+000 -1.000000e+000
      outer loop
         vertex 3.003073e+001 -1.769552e+001 0.000000e+000
         vertex 2.860000e+001 -1.710000e+001 0.000000e+000
         vertex 2.985000e+001 -1.676506e+001 0.000000e+000
      endloop
   endfacet
   facet normal 0.000000e+000 0.000000e+000 -1.000000e+000
      outer loop
         vertex -2.985000e+001 1.676506e+001 0.000000e+000
         vertex -3.003073e+001 1.769552e+001 0.000000e+000
         vertex -2.860000e+001 1.710000e+001 0.000000e+000
      endloop
   endfacet
   facet normal 0.000000e+000 0.000000e+000 -1.000000e+000
      outer loop
         vertex 3.219552e+001 1.553073e+001 0.000000e+000
         vertex 3.250000e+001 1.400000e+001 0.000000e+000
         vertex 3.110000e+001 1.460000e+001 0.000000e+000
      endloop
   endfacet
   facet normal -0.000000e+000 0.000000e+000 -1.000000e+000
      outer loop
         vertex 3.076506e+001 1.585000e+001 0.000000e+000
         vertex 3.219552e+001 1.553073e+001 0.000000e+000
         vertex 3.110000e+001 1.460000e+001 0.000000e+000
      endloop
   endfacet
   facet normal 0.000000e+000 0.000000e+000 -1.000000e+000
      outer loop
         vertex -3.110000e+001 1.460000e+001 0.000000e+000
         vertex -3.250000e+001 1.400000e+001 0.000000e+000
         vertex -3.219552e+001 1.553073e+001 0.000000e+000
      endloop
   endfacet
   facet normal 0.000000e+000 0.000000e+000 -1.000000e+000
      outer loop
         vertex -3.110000e+001 -1.460000e+001 0.000000e+000
         vertex -3.076506e+001 -1.585000e+001 0.000000e+000
         vertex -3.219552e+001 -1.553073e+001 0.000000e+000
      endloop
   endfacet
   facet normal 0.000000e+000 0.000000e+000 1.000000e+000
      outer loop
         vertex 3.250000e+001 -7.000000e+000 3.000000e+000
         vertex 3.250000e+001 7.000000e+000 3.000000e+000
         vertex 3.110000e+001 7.000000e+000 3.000000e+000
      endloop
   endfacet
   facet normal 0.000000e+000 0.000000e+000 1.000000e+000
      outer loop
         vertex 3.250000e+001 -7.000000e+000 3.000000e+000
         vertex 3.110000e+001 7.000000e+000 3.000000e+000
         vertex 3.110000e+001 -7.000000e+000 3.000000e+000
      endloop
   endfacet
endsolid
